# xmcd
#
# Track frame offsets: 
#        150
#        12722
#        33122
#        55130
#        88730
#        108395
#        133935
#        153547
#
# Disc length: 2349 seconds
#
# Revision: 2
# Processed by: cddbd v1.5.2PL0 Copyright (c) Steve Scherf et al.
# Submitted via: ExactAudioCopy v0.99pb4
#
DISCID=67092b08
DTITLE=John Lee Hooker - Alone [CD1]
DYEAR=1989
DGENRE=Blues
TTITLE0=I Miss You So
TTITLE1=Jesse James
TTITLE2=Dark Room
TTITLE3=I'll Never Get Out Of These Blues Alive
TTITLE4=Boogie Chillun
TTITLE5=When My First Wife Left Me
TTITLE6=Boom Boom
TTITLE7=One Bourbon, One Scotch, One Beer
EXTD=
EXTT0=
EXTT1=
EXTT2=
EXTT3=
EXTT4=
EXTT5=
EXTT6=
EXTT7=
PLAYORDER=
